<svg xmlns="http://www.w3.org/2000/svg" width="390" height="844" viewBox="0 0 390 844">
  <defs>
    <style>
      @import url('https://fonts.googleapis.com/css2?family=Inter:wght@400;500;600;700&amp;display=swap');
      text { font-family: 'Inter', -apple-system, BlinkMacSystemFont, sans-serif; }
    </style>
  </defs>

  <!-- Background -->
  <rect width="390" height="844" fill="#FAFAF8"/>

  <!-- Status bar -->
  <text x="32" y="20" font-size="12" font-weight="600" fill="#1A1A1A">9:41</text>

  <!-- Header: back arrow only (minimal) -->
  <path d="M38 62L30 70L38 78" stroke="#1A1A1A" stroke-width="1.5" fill="none" stroke-linecap="round" stroke-linejoin="round"/>

  <!-- Filter chips -->
  <g transform="translate(24, 92)">
    <!-- All (active) -->
    <rect x="0" y="0" width="36" height="26" rx="13" fill="#FFFFFF" stroke="#1A1A1A" stroke-width="1"/>
    <text x="18" y="17" font-size="11" font-weight="600" fill="#1A1A1A" text-anchor="middle">All</text>

    <!-- Temples -->
    <rect x="44" y="0" width="84" height="26" rx="13" fill="#FFFFFF" stroke="#F0ECE8" stroke-width="1"/>
    <circle cx="58" cy="13" r="3" fill="#1A3A5C"/>
    <text x="67" y="17" font-size="11" fill="#9B9590">Temples</text>

    <!-- Priests -->
    <rect x="136" y="0" width="76" height="26" rx="13" fill="#FFFFFF" stroke="#F0ECE8" stroke-width="1"/>
    <circle cx="150" cy="13" r="3" fill="#C45B28"/>
    <text x="159" y="17" font-size="11" fill="#9B9590">Priests</text>
  </g>

  <!-- Map container -->
  <rect x="24" y="130" width="342" height="440" rx="14" fill="#FFFFFF" stroke="#F0ECE8" stroke-width="1"/>

  <!-- India outline (simplified) -->
  <g transform="translate(38, 134)">
    <path d="M110 25 L140 15 L165 30 L200 60 L218 65 L250 60 L260 55 L255 75 L240 90 L220 95 L215 88 L210 100 L200 115 L190 130 L185 140 L180 155 L178 170 L175 190 L170 205 L168 212 L165 208 L158 195 L152 185 L145 175 L138 160 L130 140 L118 120 L108 100 L100 85 L90 80 L80 90 L75 100 L85 120 L90 135 L95 145 L100 160 L110 25Z"
          fill="#F0EDE8" stroke="#D8D3CC" stroke-width="1.2"/>

    <!-- South India highlight -->
    <path d="M108 100 L180 100 L200 115 L190 130 L185 140 L180 155 L178 170 L175 190 L170 205 L168 212 L165 208 L158 195 L152 185 L145 175 L138 160 L130 140 L118 120 L108 100Z"
          fill="#E8E4DF" opacity="0.6" stroke="#C8C2BA" stroke-width="0.8"/>

    <!-- TEMPLE PINS (dark blue) -->
    <!-- Hyderabad -->
    <circle cx="145" cy="125" r="4.5" fill="#1A3A5C" stroke="#FFF" stroke-width="1.5"/>
    <!-- Tirupati (SELECTED) -->
    <circle cx="158" cy="152" r="7" fill="#0D2240" stroke="#FFF" stroke-width="2.5"/>
    <text x="158" y="141" font-size="8" font-weight="700" fill="#0D2240" text-anchor="middle">Tirupati</text>
    <!-- Vijayawada -->
    <circle cx="162" cy="138" r="4.5" fill="#1A3A5C" stroke="#FFF" stroke-width="1.5"/>
    <!-- Srisailam -->
    <circle cx="150" cy="140" r="4.5" fill="#1A3A5C" stroke="#FFF" stroke-width="1.5"/>
    <!-- Madurai -->
    <circle cx="157" cy="180" r="4.5" fill="#1A3A5C" stroke="#FFF" stroke-width="1.5"/>
    <!-- Rameswaram -->
    <circle cx="160" cy="192" r="4.5" fill="#1A3A5C" stroke="#FFF" stroke-width="1.5"/>
    <!-- Thanjavur -->
    <circle cx="162" cy="170" r="4.5" fill="#1A3A5C" stroke="#FFF" stroke-width="1.5"/>
    <!-- Mysore -->
    <circle cx="140" cy="170" r="4.5" fill="#1A3A5C" stroke="#FFF" stroke-width="1.5"/>
    <!-- Mumbai -->
    <circle cx="105" cy="110" r="4.5" fill="#1A3A5C" stroke="#FFF" stroke-width="1.5"/>
    <!-- Hampi -->
    <circle cx="132" cy="148" r="4.5" fill="#1A3A5C" stroke="#FFF" stroke-width="1.5"/>
    <!-- Warangal -->
    <circle cx="155" cy="118" r="4.5" fill="#1A3A5C" stroke="#FFF" stroke-width="1.5"/>
    <!-- Nashik -->
    <circle cx="112" cy="100" r="4.5" fill="#1A3A5C" stroke="#FFF" stroke-width="1.5"/>
    <!-- Chidambaram -->
    <circle cx="165" cy="165" r="4.5" fill="#1A3A5C" stroke="#FFF" stroke-width="1.5"/>
    <!-- Dharmasthala -->
    <circle cx="128" cy="165" r="4.5" fill="#1A3A5C" stroke="#FFF" stroke-width="1.5"/>

    <!-- PRIEST PINS (saffron) -->
    <!-- Hyderabad priest -->
    <circle cx="148" cy="122" r="4" fill="#C45B28" stroke="#FFF" stroke-width="1.5"/>
    <!-- Warangal priest -->
    <circle cx="158" cy="116" r="4" fill="#C45B28" stroke="#FFF" stroke-width="1.5"/>
    <!-- Tirupati priest -->
    <circle cx="155" cy="155" r="4" fill="#C45B28" stroke="#FFF" stroke-width="1.5"/>
    <!-- Vijayawada priest -->
    <circle cx="165" cy="135" r="4" fill="#C45B28" stroke="#FFF" stroke-width="1.5"/>
    <!-- Madurai priest -->
    <circle cx="154" cy="183" r="4" fill="#C45B28" stroke="#FFF" stroke-width="1.5"/>
    <!-- Thanjavur priest -->
    <circle cx="159" cy="173" r="4" fill="#C45B28" stroke="#FFF" stroke-width="1.5"/>
    <!-- Mysore priest -->
    <circle cx="137" cy="173" r="4" fill="#C45B28" stroke="#FFF" stroke-width="1.5"/>
    <!-- Mumbai priest -->
    <circle cx="102" cy="113" r="4" fill="#C45B28" stroke="#FFF" stroke-width="1.5"/>
    <!-- Nashik priest -->
    <circle cx="115" cy="97" r="4" fill="#C45B28" stroke="#FFF" stroke-width="1.5"/>
  </g>

  <!-- Selected temple card -->
  <rect x="24" y="584" width="342" height="72" rx="10" fill="#FFFFFF" stroke="#F0ECE8" stroke-width="1"/>
  <g transform="translate(40, 596)">
    <circle cx="5" cy="14" r="5" fill="#1A3A5C"/>
    <text x="20" y="10" font-size="15" font-weight="600" fill="#1A1A1A">Tirumala Venkateswara Temple</text>
    <text x="20" y="26" font-size="11" fill="#C45B28">Lord Venkateswara</text>
    <g transform="translate(20, 34)">
      <path d="M4 8c0-2.5 2-4 3.5-4s3.5 1.5 3.5 4-3.5 6.5-3.5 6.5-3.5-4-3.5-6.5z" stroke="#9B9590" stroke-width="0.7" fill="none" transform="scale(0.55)"/>
      <text x="10" y="7" font-size="11" fill="#9B9590">Tirupati, Andhra Pradesh</text>
    </g>
  </g>
  <path d="M346 620l5 5-5 5" stroke="#9B9590" stroke-width="1.2" fill="none" stroke-linecap="round"/>

  <!-- Hint -->
  <text x="195" y="688" font-size="13" fill="#9B9590" text-anchor="middle">Tap a pin to see details</text>

  <!-- Legend -->
  <g transform="translate(112, 716)">
    <circle cx="4" cy="4" r="4" fill="#1A3A5C"/>
    <text x="14" y="8" font-size="11" fill="#9B9590">Temples (20)</text>

    <circle cx="110" cy="4" r="4" fill="#C45B28"/>
    <text x="120" y="8" font-size="11" fill="#9B9590">Priests (12)</text>
  </g>

  <!-- Home indicator -->
  <rect x="147" y="822" width="96" height="4" rx="2" fill="#1A1A1A" opacity="0.2"/>
</svg>
